<svg xmlns="http://www.w3.org/2000/svg" width="87.187" height="87.187" viewBox="0 0 87.187 87.187"><defs><style>.a{fill:#fff;}</style></defs><path class="a" d="M88.594,45.25A43.594,43.594,0,1,0,45,88.844,43.594,43.594,0,0,0,88.594,45.25ZM39.958,68.333a2.813,2.813,0,0,1-3.978,0L17.7,50.051a2.813,2.813,0,0,1,0-3.978L21.676,42.1a2.813,2.813,0,0,1,3.978,0L37.969,54.411,64.346,28.034a2.812,2.812,0,0,1,3.978,0L72.3,32.011a2.813,2.813,0,0,1,0,3.978Z" transform="translate(88.594 88.844) rotate(180)"/></svg>